<mxfile host="app.diagrams.net" agent="Mozilla/5.0 (Windows NT 10.0; Win64; x64) AppleWebKit/537.36 (KHTML, like Gecko) Chrome/131.0.0.0 Safari/537.36 Edg/131.0.0.0" version="26.0.4">
  <diagram name="Page-1" id="f5_xvkeOe8qYkKYH0LH0">
    <mxGraphModel dx="1489" dy="807" grid="1" gridSize="10" guides="1" tooltips="1" connect="1" arrows="1" fold="1" page="1" pageScale="1" pageWidth="850" pageHeight="1100" math="0" shadow="0">
      <root>
        <mxCell id="0" />
        <mxCell id="1" parent="0" />
        <mxCell id="EA6sCmaHPRP4QWD5gDOn-23" style="rounded=0;orthogonalLoop=1;jettySize=auto;html=1;exitX=0.5;exitY=0.5;exitDx=0;exitDy=0;exitPerimeter=0;entryX=0;entryY=0.5;entryDx=0;entryDy=0;" edge="1" parent="1" source="EA6sCmaHPRP4QWD5gDOn-2" target="EA6sCmaHPRP4QWD5gDOn-15">
          <mxGeometry relative="1" as="geometry" />
        </mxCell>
        <mxCell id="EA6sCmaHPRP4QWD5gDOn-24" style="rounded=0;orthogonalLoop=1;jettySize=auto;html=1;exitX=0.5;exitY=0.5;exitDx=0;exitDy=0;exitPerimeter=0;entryX=0;entryY=0.5;entryDx=0;entryDy=0;" edge="1" parent="1" source="EA6sCmaHPRP4QWD5gDOn-2" target="EA6sCmaHPRP4QWD5gDOn-6">
          <mxGeometry relative="1" as="geometry" />
        </mxCell>
        <mxCell id="EA6sCmaHPRP4QWD5gDOn-2" value="Khách hàng" style="shape=umlActor;html=1;verticalLabelPosition=top;verticalAlign=bottom;align=center;labelPosition=center;" vertex="1" parent="1">
          <mxGeometry x="160" y="395" width="30" height="60" as="geometry" />
        </mxCell>
        <mxCell id="EA6sCmaHPRP4QWD5gDOn-25" style="edgeStyle=orthogonalEdgeStyle;rounded=0;orthogonalLoop=1;jettySize=auto;html=1;exitX=0.5;exitY=0.5;exitDx=0;exitDy=0;exitPerimeter=0;" edge="1" parent="1" source="EA6sCmaHPRP4QWD5gDOn-3" target="EA6sCmaHPRP4QWD5gDOn-6">
          <mxGeometry relative="1" as="geometry" />
        </mxCell>
        <mxCell id="EA6sCmaHPRP4QWD5gDOn-26" style="rounded=0;orthogonalLoop=1;jettySize=auto;html=1;exitX=0.5;exitY=0.5;exitDx=0;exitDy=0;exitPerimeter=0;entryX=0.5;entryY=0;entryDx=0;entryDy=0;" edge="1" parent="1" source="EA6sCmaHPRP4QWD5gDOn-3" target="EA6sCmaHPRP4QWD5gDOn-16">
          <mxGeometry relative="1" as="geometry" />
        </mxCell>
        <mxCell id="EA6sCmaHPRP4QWD5gDOn-27" style="rounded=0;orthogonalLoop=1;jettySize=auto;html=1;exitX=0.5;exitY=0.5;exitDx=0;exitDy=0;exitPerimeter=0;entryX=0.5;entryY=0;entryDx=0;entryDy=0;" edge="1" parent="1" source="EA6sCmaHPRP4QWD5gDOn-3" target="EA6sCmaHPRP4QWD5gDOn-18">
          <mxGeometry relative="1" as="geometry" />
        </mxCell>
        <mxCell id="EA6sCmaHPRP4QWD5gDOn-28" style="rounded=0;orthogonalLoop=1;jettySize=auto;html=1;exitX=0.5;exitY=0.5;exitDx=0;exitDy=0;exitPerimeter=0;entryX=0.5;entryY=0;entryDx=0;entryDy=0;" edge="1" parent="1" source="EA6sCmaHPRP4QWD5gDOn-3" target="EA6sCmaHPRP4QWD5gDOn-17">
          <mxGeometry relative="1" as="geometry" />
        </mxCell>
        <mxCell id="EA6sCmaHPRP4QWD5gDOn-29" style="rounded=0;orthogonalLoop=1;jettySize=auto;html=1;exitX=0.5;exitY=0.5;exitDx=0;exitDy=0;exitPerimeter=0;entryX=0.5;entryY=0;entryDx=0;entryDy=0;" edge="1" parent="1" source="EA6sCmaHPRP4QWD5gDOn-3" target="EA6sCmaHPRP4QWD5gDOn-20">
          <mxGeometry relative="1" as="geometry" />
        </mxCell>
        <mxCell id="EA6sCmaHPRP4QWD5gDOn-30" style="rounded=0;orthogonalLoop=1;jettySize=auto;html=1;exitX=0.5;exitY=0.5;exitDx=0;exitDy=0;exitPerimeter=0;entryX=0.5;entryY=0;entryDx=0;entryDy=0;" edge="1" parent="1" source="EA6sCmaHPRP4QWD5gDOn-3" target="EA6sCmaHPRP4QWD5gDOn-21">
          <mxGeometry relative="1" as="geometry" />
        </mxCell>
        <mxCell id="EA6sCmaHPRP4QWD5gDOn-3" value="Quản trị viên" style="shape=umlActor;html=1;verticalLabelPosition=top;verticalAlign=bottom;align=center;horizontal=1;labelPosition=center;" vertex="1" parent="1">
          <mxGeometry x="505" y="50" width="30" height="60" as="geometry" />
        </mxCell>
        <mxCell id="EA6sCmaHPRP4QWD5gDOn-6" value="Đăng nhập" style="ellipse;whiteSpace=wrap;html=1;" vertex="1" parent="1">
          <mxGeometry x="450" y="310" width="140" height="70" as="geometry" />
        </mxCell>
        <mxCell id="EA6sCmaHPRP4QWD5gDOn-14" value="Xem sản phẩm" style="ellipse;whiteSpace=wrap;html=1;" vertex="1" parent="1">
          <mxGeometry x="30" y="515" width="140" height="70" as="geometry" />
        </mxCell>
        <mxCell id="EA6sCmaHPRP4QWD5gDOn-15" value="Đăng ký" style="ellipse;whiteSpace=wrap;html=1;" vertex="1" parent="1">
          <mxGeometry x="450" y="415" width="140" height="70" as="geometry" />
        </mxCell>
        <mxCell id="EA6sCmaHPRP4QWD5gDOn-16" value="Quản lý danh mục" style="ellipse;whiteSpace=wrap;html=1;" vertex="1" parent="1">
          <mxGeometry x="60" y="150" width="140" height="70" as="geometry" />
        </mxCell>
        <mxCell id="EA6sCmaHPRP4QWD5gDOn-17" value="Quản lý sản phẩm" style="ellipse;whiteSpace=wrap;html=1;" vertex="1" parent="1">
          <mxGeometry x="200" y="210" width="140" height="70" as="geometry" />
        </mxCell>
        <mxCell id="EA6sCmaHPRP4QWD5gDOn-18" value="Quản lý khách hàng" style="ellipse;whiteSpace=wrap;html=1;" vertex="1" parent="1">
          <mxGeometry x="365" y="200" width="140" height="70" as="geometry" />
        </mxCell>
        <mxCell id="EA6sCmaHPRP4QWD5gDOn-20" value="Quản lý đơn hàng" style="ellipse;whiteSpace=wrap;html=1;" vertex="1" parent="1">
          <mxGeometry x="540" y="200" width="140" height="70" as="geometry" />
        </mxCell>
        <mxCell id="EA6sCmaHPRP4QWD5gDOn-21" value="Quản lý giỏ hàng" style="ellipse;whiteSpace=wrap;html=1;" vertex="1" parent="1">
          <mxGeometry x="710" y="210" width="140" height="70" as="geometry" />
        </mxCell>
        <mxCell id="EA6sCmaHPRP4QWD5gDOn-31" value="Quản lý thương hiệu" style="ellipse;whiteSpace=wrap;html=1;" vertex="1" parent="1">
          <mxGeometry x="110" y="30" width="140" height="70" as="geometry" />
        </mxCell>
        <mxCell id="EA6sCmaHPRP4QWD5gDOn-32" style="rounded=0;orthogonalLoop=1;jettySize=auto;html=1;exitX=0.5;exitY=0.5;exitDx=0;exitDy=0;exitPerimeter=0;entryX=0.5;entryY=0;entryDx=0;entryDy=0;" edge="1" parent="1" source="EA6sCmaHPRP4QWD5gDOn-3" target="EA6sCmaHPRP4QWD5gDOn-31">
          <mxGeometry relative="1" as="geometry">
            <mxPoint x="530" y="90" as="sourcePoint" />
            <mxPoint x="260" y="210" as="targetPoint" />
          </mxGeometry>
        </mxCell>
        <mxCell id="EA6sCmaHPRP4QWD5gDOn-33" value="Quản lý mã giảm giá" style="ellipse;whiteSpace=wrap;html=1;" vertex="1" parent="1">
          <mxGeometry x="840" y="150" width="140" height="70" as="geometry" />
        </mxCell>
        <mxCell id="EA6sCmaHPRP4QWD5gDOn-34" value="Thống kê" style="ellipse;whiteSpace=wrap;html=1;" vertex="1" parent="1">
          <mxGeometry x="790" y="20" width="140" height="70" as="geometry" />
        </mxCell>
        <mxCell id="EA6sCmaHPRP4QWD5gDOn-35" style="rounded=0;orthogonalLoop=1;jettySize=auto;html=1;exitX=0.5;exitY=0.5;exitDx=0;exitDy=0;exitPerimeter=0;entryX=0;entryY=0.5;entryDx=0;entryDy=0;" edge="1" parent="1" source="EA6sCmaHPRP4QWD5gDOn-3" target="EA6sCmaHPRP4QWD5gDOn-33">
          <mxGeometry relative="1" as="geometry">
            <mxPoint x="530" y="90" as="sourcePoint" />
            <mxPoint x="790" y="220" as="targetPoint" />
          </mxGeometry>
        </mxCell>
        <mxCell id="EA6sCmaHPRP4QWD5gDOn-36" style="rounded=0;orthogonalLoop=1;jettySize=auto;html=1;exitX=0.5;exitY=0.5;exitDx=0;exitDy=0;exitPerimeter=0;entryX=0;entryY=0.5;entryDx=0;entryDy=0;" edge="1" parent="1" source="EA6sCmaHPRP4QWD5gDOn-3" target="EA6sCmaHPRP4QWD5gDOn-34">
          <mxGeometry relative="1" as="geometry">
            <mxPoint x="540" y="100" as="sourcePoint" />
            <mxPoint x="800" y="230" as="targetPoint" />
          </mxGeometry>
        </mxCell>
        <mxCell id="EA6sCmaHPRP4QWD5gDOn-37" value="Theo dõi đơn hàng" style="ellipse;whiteSpace=wrap;html=1;" vertex="1" parent="1">
          <mxGeometry x="440" y="600" width="140" height="70" as="geometry" />
        </mxCell>
        <mxCell id="EA6sCmaHPRP4QWD5gDOn-38" value="Đặt hàng" style="ellipse;whiteSpace=wrap;html=1;" vertex="1" parent="1">
          <mxGeometry x="285" y="615" width="140" height="70" as="geometry" />
        </mxCell>
        <mxCell id="EA6sCmaHPRP4QWD5gDOn-39" style="rounded=0;orthogonalLoop=1;jettySize=auto;html=1;exitX=0.5;exitY=0.5;exitDx=0;exitDy=0;exitPerimeter=0;entryX=0.5;entryY=0;entryDx=0;entryDy=0;" edge="1" parent="1" source="EA6sCmaHPRP4QWD5gDOn-2" target="EA6sCmaHPRP4QWD5gDOn-38">
          <mxGeometry relative="1" as="geometry">
            <mxPoint x="185" y="435" as="sourcePoint" />
            <mxPoint x="460" y="460" as="targetPoint" />
          </mxGeometry>
        </mxCell>
        <mxCell id="EA6sCmaHPRP4QWD5gDOn-40" style="rounded=0;orthogonalLoop=1;jettySize=auto;html=1;exitX=0.5;exitY=0.5;exitDx=0;exitDy=0;exitPerimeter=0;entryX=0.5;entryY=0;entryDx=0;entryDy=0;" edge="1" parent="1" source="EA6sCmaHPRP4QWD5gDOn-2" target="EA6sCmaHPRP4QWD5gDOn-14">
          <mxGeometry relative="1" as="geometry">
            <mxPoint x="185" y="435" as="sourcePoint" />
            <mxPoint x="130" y="600" as="targetPoint" />
          </mxGeometry>
        </mxCell>
        <mxCell id="EA6sCmaHPRP4QWD5gDOn-41" style="rounded=0;orthogonalLoop=1;jettySize=auto;html=1;exitX=0.5;exitY=0.5;exitDx=0;exitDy=0;exitPerimeter=0;entryX=0.5;entryY=0;entryDx=0;entryDy=0;" edge="1" parent="1" source="EA6sCmaHPRP4QWD5gDOn-2" target="EA6sCmaHPRP4QWD5gDOn-37">
          <mxGeometry relative="1" as="geometry">
            <mxPoint x="250" y="465" as="sourcePoint" />
            <mxPoint x="195" y="630" as="targetPoint" />
          </mxGeometry>
        </mxCell>
        <mxCell id="EA6sCmaHPRP4QWD5gDOn-42" value="Đánh giá sản phẩm" style="ellipse;whiteSpace=wrap;html=1;" vertex="1" parent="1">
          <mxGeometry x="460" y="505" width="140" height="70" as="geometry" />
        </mxCell>
        <mxCell id="EA6sCmaHPRP4QWD5gDOn-43" style="rounded=0;orthogonalLoop=1;jettySize=auto;html=1;exitX=0.5;exitY=0.5;exitDx=0;exitDy=0;exitPerimeter=0;entryX=0;entryY=0.5;entryDx=0;entryDy=0;" edge="1" parent="1" source="EA6sCmaHPRP4QWD5gDOn-2" target="EA6sCmaHPRP4QWD5gDOn-42">
          <mxGeometry relative="1" as="geometry">
            <mxPoint x="185" y="435" as="sourcePoint" />
            <mxPoint x="440" y="600" as="targetPoint" />
          </mxGeometry>
        </mxCell>
        <mxCell id="EA6sCmaHPRP4QWD5gDOn-44" value="Tìm kiếm sản phẩm" style="ellipse;whiteSpace=wrap;html=1;" vertex="1" parent="1">
          <mxGeometry x="130" y="625" width="140" height="70" as="geometry" />
        </mxCell>
        <mxCell id="EA6sCmaHPRP4QWD5gDOn-45" style="rounded=0;orthogonalLoop=1;jettySize=auto;html=1;exitX=0.5;exitY=0.5;exitDx=0;exitDy=0;exitPerimeter=0;entryX=0.5;entryY=0;entryDx=0;entryDy=0;" edge="1" parent="1" source="EA6sCmaHPRP4QWD5gDOn-2" target="EA6sCmaHPRP4QWD5gDOn-44">
          <mxGeometry relative="1" as="geometry">
            <mxPoint x="185" y="435" as="sourcePoint" />
            <mxPoint x="110" y="525" as="targetPoint" />
          </mxGeometry>
        </mxCell>
      </root>
    </mxGraphModel>
  </diagram>
</mxfile>
